<?xml version="1.0" standalone="no"?>
<!DOCTYPE svg PUBLIC "-//W3C//DTD SVG 1.1//EN" "http://www.w3.org/Graphics/SVG/1.1/DTD/svg11.dtd" >
<svg xmlns="http://www.w3.org/2000/svg">
<metadata></metadata>
<defs>
<font id="turkcell_saturademi" horiz-adv-x="940" >
<font-face units-per-em="2048" ascent="1638" descent="-410" />
<missing-glyph horiz-adv-x="389" />
<glyph horiz-adv-x="2048" />
<glyph horiz-adv-x="2048" />
<glyph unicode="&#xd;" horiz-adv-x="2048" />
<glyph unicode=" "  horiz-adv-x="389" />
<glyph unicode="&#x09;" horiz-adv-x="389" />
<glyph unicode="&#xa0;" horiz-adv-x="389" />
<glyph unicode="!" horiz-adv-x="505" d="M119 117q0 57 38 96t95 39q59 0 98 -41t39 -94q0 -55 -39 -94t-98 -39q-57 0 -95 38t-38 95zM129 1231q0 63 33 100t92 37t93 -37t34 -100q0 -39 -3 -107.5t-8 -173t-11.5 -248t-14.5 -333.5h-180q-6 190 -13.5 333.5t-11.5 248t-7 173t-3 107.5z" />
<glyph unicode="&#x22;" horiz-adv-x="700" d="M90 1348h209l-23 -414h-165zM403 1348h207l-20 -414h-166z" />
<glyph unicode="#" horiz-adv-x="942" d="M57 371v151h131l25 236h-125v153h141l39 355h172l-37 -355h191l37 355h174l-39 -355h119v-153h-135l-25 -236h127v-151h-141l-39 -371h-172l39 371h-191l-39 -371h-172l37 371h-117zM362 522h191l25 236h-191z" />
<glyph unicode="$" d="M47 211l170 125q10 -18 25.5 -43t40 -48.5t58.5 -42t81 -26.5v385q-57 25 -114.5 53.5t-102.5 70.5t-74 102.5t-29 146.5q0 143 86 232t234 110v121h137v-119q70 -6 123 -26.5t93 -49t65.5 -63.5t42.5 -68l-168 -110q-20 35 -56 71.5t-100 48.5v-352q57 -25 116.5 -55.5 t105.5 -75.5t76 -108.5t30 -153.5q0 -86 -26.5 -147.5t-72 -104.5t-104.5 -66.5t-125 -31.5v-174h-137v172q-78 6 -138.5 26.5t-107.5 52t-78.5 69.5t-50.5 79zM313 942q0 -53 30 -88t79 -63v290q-57 -10 -83 -48t-26 -91zM559 176q66 16 89.5 59.5t23.5 98.5q0 59 -31 98 t-82 68v-324z" />
<glyph unicode="%" horiz-adv-x="1822" d="M88 866q0 221 81 313.5t257 92.5q82 0 142.5 -20.5t100.5 -66.5t58 -122t18 -184q0 -217 -81 -308.5t-261 -91.5q-160 0 -237.5 87t-77.5 300zM279 856q0 -127 29.5 -175t103.5 -48q37 0 63.5 12t44 42t26.5 80t9 128q0 127 -31.5 174t-105.5 47q-35 0 -61.5 -11t-44 -41 t-25.5 -80t-8 -128zM453 0l731 1266h194l-731 -1266h-194zM1075 377q0 221 82 313t258 92q82 0 142.5 -20.5t99.5 -66.5t58.5 -121.5t19.5 -184.5q0 -217 -81 -308t-261 -91q-162 0 -240 87t-78 300zM1266 367q0 -127 30.5 -175.5t102.5 -48.5q37 0 63.5 12.5t44 42t26.5 80 t9 128.5q0 127 -31.5 174t-103.5 47q-37 0 -63.5 -11.5t-44 -41t-25.5 -80t-8 -127.5z" />
<glyph unicode="&#x26;" horiz-adv-x="1214" d="M70 317q0 61 16 113.5t52 101t92.5 93.5t138.5 92q-57 78 -97.5 164t-40.5 184q0 57 18.5 111.5t60.5 97.5t109.5 68.5t164.5 25.5q100 0 167.5 -28.5t108.5 -73.5t59.5 -100.5t18.5 -108.5q0 -131 -67.5 -223.5t-211.5 -176.5l222 -286q35 55 57.5 114.5t32.5 112.5 l203 -61q-23 -80 -63 -165t-103 -163l163 -209h-258l-59 76q-72 -45 -161 -70.5t-201 -25.5q-203 0 -312.5 92t-109.5 245zM293 334q0 -72 55 -123t160 -51q72 0 129 18.5t104 46.5l-266 353q-102 -59 -142 -117t-40 -127zM444 1055q0 -70 29 -129t80 -131q98 59 136 115.5 t38 133.5q0 63 -36 105.5t-107 42.5q-61 0 -100.5 -33t-39.5 -104z" />
<glyph unicode="'" horiz-adv-x="389" d="M90 1348h209l-23 -414h-165z" />
<glyph unicode="(" horiz-adv-x="669" d="M109 494q0 283 91 533.5t287 430.5l136 -127q-92 -96 -151.5 -204.5t-92.5 -219t-45 -216t-12 -197.5t12 -199t45 -217.5t92 -219t152 -204.5l-136 -125q-197 180 -287.5 431t-90.5 534z" />
<glyph unicode=")" horiz-adv-x="669" d="M47 -346q92 96 151.5 204.5t92.5 219t45 217t12 199.5q0 92 -12 197.5t-45 216t-92.5 219t-151.5 204.5l135 127q197 -180 288 -431t91 -533q0 -283 -91 -534t-288 -431z" />
<glyph unicode="*" horiz-adv-x="712" d="M96 1069l146 80l-146 80l60 104l139 -86v168h123v-168l139 86l59 -104l-145 -80l145 -80l-59 -104l-139 84v-166h-123v166l-139 -84z" />
<glyph unicode="+" d="M63 449v174h318v319h180v-319h318v-174h-318v-322h-180v322h-318z" />
<glyph unicode="," horiz-adv-x="436" d="M35 -199l80 408h221l-113 -408h-188z" />
<glyph unicode="-" horiz-adv-x="659" d="M68 442v203h526v-203h-526z" />
<glyph unicode="." horiz-adv-x="436" d="M84 117q0 57 37 96t96 39t98 -41t39 -94q0 -55 -39 -94t-98 -39t-96 38t-37 95z" />
<glyph unicode="/" horiz-adv-x="811" d="M16 -80l566 1487h211l-566 -1487h-211z" />
<glyph unicode="0" horiz-adv-x="942" d="M53 616q0 182 22.5 309.5t73 207t132 115.5t200.5 36q115 0 193 -33.5t125 -108.5t67.5 -198t20.5 -301t-21.5 -304t-72 -205t-132 -114.5t-204.5 -35.5q-113 0 -190 32.5t-125 107.5t-68.5 195.5t-20.5 296.5zM272 608q0 -121 7.5 -203.5t27 -134t56.5 -75t98 -23.5 t101 23.5t63.5 80t32 150.5t8.5 233q0 119 -7.5 202t-28 134.5t-59.5 75t-100 23.5q-59 0 -98 -23.5t-61.5 -79t-31 -148.5t-8.5 -235z" />
<glyph unicode="1" horiz-adv-x="821" d="M51 1092q18 16 65.5 46.5t114 61.5t149.5 53.5t177 24.5v-1090h238v-188h-686v188h235v848q-61 -23 -115.5 -56.5t-74.5 -47.5z" />
<glyph unicode="2" horiz-adv-x="942" d="M57 0v182l332 332q123 123 183.5 226.5t60.5 199.5q0 78 -45 115t-111 37q-55 0 -92 -19.5t-59.5 -46.5t-34.5 -52.5t-19 -39.5q-49 20 -99 39.5t-99 42.5q16 51 48 99t82 86t122.5 60.5t171.5 22.5q182 0 275 -98.5t93 -251.5q0 -66 -16 -125t-54 -121.5t-98.5 -132.5 t-148.5 -158l-211 -209h543v-188h-824z" />
<glyph unicode="3" horiz-adv-x="942" d="M43 213l195 104q8 -20 23 -44.5t39 -47t59.5 -38t89.5 -15.5q92 0 143 46t53 138q2 106 -67.5 166t-229.5 60h-61v178h61q76 0 127 14t83 39t45 58.5t13 72.5q0 68 -37.5 109t-129.5 41q-84 0 -132.5 -38t-76.5 -98l-179 103q41 100 141.5 161.5t252.5 61.5 q76 0 145.5 -17.5t121.5 -55t84 -96t32 -140.5q0 -66 -19.5 -116t-51.5 -87t-73 -60.5t-82 -35.5q111 -31 181.5 -109t70.5 -213q0 -96 -32.5 -165.5t-89 -114.5t-134.5 -67.5t-168 -22.5q-96 0 -163.5 21.5t-113.5 55t-75 74.5t-45 78z" />
<glyph unicode="4" horiz-adv-x="942" d="M27 317v162l436 787h315v-764h148v-185h-148v-317h-217v317h-534zM248 502h313v567z" />
<glyph unicode="5" horiz-adv-x="942" d="M43 180l162 125q8 -16 25.5 -38.5t45 -43t67.5 -36t95 -15.5q104 0 155.5 67.5t51.5 178.5q0 106 -44 168.5t-157 62.5q-43 0 -80.5 -13t-66.5 -36h-166l53 666h654v-189h-480l-22 -293q20 10 60 22.5t96 12.5q106 0 177.5 -32.5t115.5 -87t62.5 -125t18.5 -144.5 q0 -96 -24.5 -178t-76.5 -141.5t-134 -93t-195 -33.5q-88 0 -153.5 18t-113.5 48t-79 65t-47 65z" />
<glyph unicode="6" horiz-adv-x="942" d="M72 578q0 158 24.5 287.5t77.5 223t140 144.5t214 51q139 0 217 -57.5t113 -143.5l-182 -92q-16 39 -52 71t-114 32q-106 0 -157.5 -81t-61.5 -268q25 14 78 28.5t131 14.5q186 0 287.5 -99t101.5 -292q0 -188 -100.5 -300.5t-309.5 -112.5q-102 0 -179 31.5t-128 102 t-75.5 183.5t-24.5 277zM285 514q0 -174 47 -258t160 -84q86 0 134 51t48 162q0 117 -55.5 166t-163.5 49q-59 0 -103.5 -11t-66.5 -28v-47z" />
<glyph unicode="7" horiz-adv-x="942" d="M76 1077v189h788v-154q-86 -176 -153.5 -342t-118.5 -310.5t-87 -262t-56 -197.5h-234q18 82 60 205t100.5 266t129 300t148.5 306h-577z" />
<glyph unicode="8" horiz-adv-x="942" d="M53 326q0 113 60.5 204t179.5 146q-88 45 -142.5 116.5t-54.5 174.5q0 61 22.5 118.5t67.5 101.5t115 70.5t166 26.5q94 0 166 -26.5t118 -71.5t69.5 -101.5t23.5 -117.5q0 -100 -54.5 -175t-152.5 -118q137 -61 193.5 -138t56.5 -192q0 -164 -105.5 -262t-308.5 -98 q-104 0 -183 26.5t-131.5 72.5t-79 108.5t-26.5 134.5zM274 356q0 -86 48.5 -138t152.5 -52q86 0 138.5 43t52.5 135q0 78 -48 137.5t-161 102.5q-109 -49 -146 -105.5t-37 -122.5zM309 956q0 -74 49 -121.5t121 -70.5q80 29 116 76t36 110q0 66 -38 110t-120 44t-123 -41 t-41 -107z" />
<glyph unicode="9" horiz-adv-x="942" d="M51 874q0 186 98.5 298t307.5 112q106 0 184 -32.5t128 -104.5t74.5 -186.5t24.5 -276.5t-24.5 -291t-77.5 -220t-138 -140t-206 -49q-152 0 -236 65.5t-118 163.5l186 100q18 -59 57 -100t117 -41q111 0 164 91t57 253q-20 -12 -74.5 -30.5t-138.5 -18.5 q-180 0 -282.5 104.5t-102.5 302.5zM266 879q0 -117 54.5 -169.5t164.5 -52.5q59 0 101.5 14.5t68.5 30.5v50q0 172 -45 257t-159 85q-86 0 -135.5 -50.5t-49.5 -164.5z" />
<glyph unicode=":" horiz-adv-x="436" d="M84 117q0 57 37 96t96 39t98 -41t39 -94q0 -55 -39 -94t-98 -39t-96 38t-37 95zM84 768q0 57 37 96t96 39t98 -41t39 -94q0 -55 -39 -94t-98 -39t-96 38t-37 95z" />
<glyph unicode=";" horiz-adv-x="436" d="M35 -199l80 408h221l-113 -408h-188zM84 768q0 57 38 96t97 39t97 -41t38 -94q0 -55 -37.5 -94t-97.5 -39q-59 0 -97 38t-38 95z" />
<glyph unicode="&#x3c;" d="M84 449v174l772 333v-182l-577 -239l577 -240v-182z" />
<glyph unicode="=" d="M63 260v174h816v-174h-816zM63 635v176h816v-176h-816z" />
<glyph unicode="&#x3e;" d="M84 113v182l578 240l-578 239v182l772 -333v-174z" />
<glyph unicode="?" horiz-adv-x="790" d="M27 1157q14 33 42.5 70t73.5 68.5t108.5 52t147.5 20.5q164 0 263.5 -86t99.5 -250q0 -76 -21.5 -135t-53.5 -110.5t-70.5 -96.5t-74.5 -93t-63.5 -102.5t-38.5 -121.5h-194q6 129 51 212t97 148.5t94 127t42 147.5q0 72 -35.5 115.5t-113.5 43.5q-41 0 -70.5 -11 t-50 -28.5t-34 -38t-21.5 -36.5zM203 117q0 57 38 96t97 39t97 -41t38 -94q0 -55 -38 -94t-97 -39t-97 38t-38 95z" />
<glyph unicode="@" horiz-adv-x="1701" d="M96 483q0 199 47 357.5t144.5 270.5t247 171t354.5 59q184 0 320.5 -48t226.5 -139t134 -219t44 -288q0 -322 -167 -493.5t-513 -171.5q-223 0 -328.5 71.5t-105.5 206.5q0 158 136 236.5t372 95.5v49q0 33 -3.5 61.5t-16.5 49t-38.5 32t-70.5 11.5q-63 0 -110.5 -26 t-80.5 -83l-162 96q35 70 127 125.5t238 55.5q86 0 146.5 -20.5t98.5 -57.5t55 -87t17 -108v-502q104 41 151.5 151t47.5 290q0 262 -122 394t-388 132q-166 0 -279.5 -47t-184.5 -133t-102.5 -209t-31.5 -277q0 -344 148.5 -507.5t453.5 -163.5q96 0 177 15t128 38v-199 q-25 -12 -60.5 -21t-76.5 -15.5t-85 -8.5t-85 -2q-399 0 -601 221.5t-202 636.5zM705 268q0 -55 52 -84.5t175 -29.5h38.5t37.5 4v272q-94 -6 -153.5 -21.5t-92.5 -38t-45 -49t-12 -53.5z" />
<glyph unicode="A" horiz-adv-x="1161" d="M45 0l315 1311q25 16 79.5 35.5t135.5 19.5q74 0 124.5 -19.5t84 -62.5t57 -113.5t48.5 -173.5l227 -997h-231l-92 408h-428l-95 -408h-225zM410 602h340l-62 272q-23 96 -36 153.5t-25.5 87.5t-24.5 38t-31 8q-23 0 -34 -8z" />
<glyph unicode="B" horiz-adv-x="1056" d="M137 47v1256q25 14 62 25t83 20.5t97 14.5t102 5q123 0 210 -27.5t142.5 -75.5t80 -114t24.5 -143q0 -70 -19.5 -121t-49 -86t-66.5 -56.5t-74 -33.5q41 -10 88 -32t86 -59.5t64.5 -96t25.5 -144.5q0 -117 -43 -195t-113.5 -123t-160.5 -63t-182 -18q-137 0 -229.5 22.5 t-127.5 44.5zM365 193q10 -8 44.5 -12.5t82.5 -4.5q131 0 197.5 49t66.5 160q0 106 -66.5 161.5t-234.5 55.5h-90v-409zM365 791h81q150 0 205.5 52t55.5 146q0 39 -9.5 73t-35 58.5t-70.5 39t-115 14.5q-29 0 -62.5 -3.5t-49.5 -7.5v-372z" />
<glyph unicode="C" horiz-adv-x="1067" d="M96 659q0 143 19.5 272.5t76 226.5t158 153.5t262.5 56.5q98 0 169 -23.5t118 -60.5t77 -81t46 -85l-195 -102q-12 27 -30.5 54.5t-45 49t-63.5 34.5t-86 13q-78 0 -130 -29.5t-84 -91t-45 -153.5t-13 -215q0 -127 15 -220t52 -154.5t96.5 -91.5t149.5 -30q106 0 172 37 t100 72l113 -178q-20 -18 -52 -42t-80 -44.5t-113.5 -33.5t-151.5 -13q-166 0 -269.5 53t-163 145t-81 216t-21.5 265z" />
<glyph unicode="D" horiz-adv-x="1202" d="M137 49v1245q27 14 71 27.5t99 24t118.5 16.5t127.5 6q154 0 260.5 -43t171 -127t93 -208t28.5 -283q0 -219 -35 -360.5t-106.5 -223.5t-181 -112.5t-257.5 -30.5q-80 0 -147.5 8t-118.5 20t-83 23.5t-40 17.5zM365 211q57 -31 190 -31q84 0 144.5 22.5t98.5 81t56 162 t18 263.5q0 113 -14 198.5t-50 144t-95.5 87t-149.5 28.5q-59 0 -111.5 -8t-86.5 -18v-930z" />
<glyph unicode="E" horiz-adv-x="1001" d="M131 0v1348h764v-197h-537v-342h455v-199h-455v-413h557v-197h-784z" />
<glyph unicode="F" horiz-adv-x="948" d="M137 0v1348h768v-197h-540v-371h430v-198h-430v-582h-228z" />
<glyph unicode="G" horiz-adv-x="1142" d="M94 659q0 147 21.5 276.5t80 225.5t163 151.5t270.5 55.5q100 0 172.5 -25.5t124 -63.5t81 -84t46.5 -89l-199 -92q-14 29 -33.5 56.5t-48.5 49t-69.5 33.5t-96.5 12q-78 0 -131 -28.5t-86 -89t-47 -154.5t-14 -223q0 -127 14 -219.5t51 -152.5t97.5 -90t152.5 -30 q57 0 99 8.5t69 18.5v325h-217v197h442v-639q-53 -41 -151.5 -74.5t-249.5 -33.5q-166 0 -270.5 50t-165 141t-83 216t-22.5 272z" />
<glyph unicode="H" horiz-adv-x="1259" d="M137 0v1348h228v-535h532v535h225v-1348h-225v612h-532v-612h-228z" />
<glyph unicode="I" horiz-adv-x="522" d="M147 0v1348h228v-1348h-228z" />
<glyph unicode="J" horiz-adv-x="786" d="M23 147l186 119q6 -10 14 -24.5t21.5 -28.5t34 -23.5t49.5 -9.5q94 0 94 111v1057h229v-1051q0 -96 -27.5 -158.5t-71.5 -97.5t-102.5 -48t-119.5 -13q-72 0 -123 16t-88 40.5t-59.5 54.5t-36.5 56z" />
<glyph unicode="K" horiz-adv-x="1095" d="M135 0v1348h227v-605q57 76 121 162t124.5 168t112.5 153.5t87 121.5h276l-417 -574q104 -195 208.5 -387t210.5 -387h-251l-312 578l-160 -218v-360h-227z" />
<glyph unicode="L" horiz-adv-x="927" d="M127 0v1348h227v-1151h537v-197h-764z" />
<glyph unicode="M" horiz-adv-x="1540" d="M137 0v1348h316l174 -533q78 -244 112.5 -389t38.5 -160q2 8 34 153.5t114 397.5l176 531h301v-1348h-217v457q0 276 5 423.5t7 157.5q-2 -6 -12 -44t-28.5 -102.5t-45.5 -151.5t-59 -191l-183 -549h-200l-183 551q-33 98 -58.5 183t-43.5 148.5t-29.5 103.5t-13.5 50 q0 -10 6 -157.5t6 -421.5v-457h-217z" />
<glyph unicode="N" horiz-adv-x="1292" d="M137 0v1348h264l308 -551q123 -221 181 -350.5t62 -137.5q-2 10 -8 148.5t-6 408.5v482h219v-1348h-250l-319 569q-125 223 -183.5 353.5t-62.5 138.5q0 -12 6 -146.5t6 -402.5v-512h-217z" />
<glyph unicode="O" horiz-adv-x="1259" d="M96 668q0 162 23.5 290.5t85 220t166 140.5t266.5 49q156 0 257 -46t160.5 -133t84 -215t24.5 -294q0 -164 -23.5 -294t-85 -220t-165.5 -138t-266 -48q-156 0 -257.5 46t-162 134t-84 216t-23.5 292zM330 672q0 -137 14 -230.5t49 -152t91.5 -84t142.5 -25.5 q90 0 149.5 28t94 88t48 155.5t13.5 232.5q0 127 -12.5 218t-46 150.5t-92 87t-148.5 27.5t-148.5 -28.5t-93.5 -88t-48 -153.5t-13 -225z" />
<glyph unicode="P" horiz-adv-x="1042" d="M137 0v1298q59 33 159.5 51.5t203.5 18.5q254 0 366.5 -123t112.5 -342q0 -139 -35 -235.5t-97.5 -155.5t-147.5 -86t-183 -27q-45 0 -87 4.5t-64 12.5v-416h-228zM365 616q6 -4 21 -7t34.5 -5t41 -3t40.5 -1q59 0 105 13.5t78 46t48.5 87t16.5 136.5q0 152 -55.5 218 t-196.5 66q-53 0 -88 -5t-45 -11v-535z" />
<glyph unicode="Q" horiz-adv-x="1259" d="M96 668q0 162 23.5 290.5t85 220t166 140.5t266.5 49q156 0 257 -46t160.5 -133t84 -215t24.5 -294q0 -133 -15 -243.5t-52 -195.5t-101.5 -144.5t-163.5 -90.5q53 -53 116 -67.5t159 -14.5q27 0 48.5 5t33.5 12l47 -193q-16 -10 -50 -16t-77 -6q-92 0 -168 18t-139.5 52 t-117.5 81t-105 105q-141 4 -234.5 53t-148 137t-77 213t-22.5 283zM330 672q0 -137 14 -230.5t49 -152t91.5 -84t142.5 -25.5q90 0 149.5 28t94 88t48 155.5t13.5 232.5q0 127 -12.5 218t-46 150.5t-92 87t-148.5 27.5t-148.5 -28.5t-93.5 -88t-48 -153.5t-13 -225z" />
<glyph unicode="R" horiz-adv-x="1081" d="M137 0v1298q59 33 158.5 51.5t216.5 18.5q238 0 354.5 -112.5t116.5 -309.5q0 -156 -63.5 -254t-174.5 -145l291 -547h-250l-264 500q-4 -2 -23.5 -2h-23.5q-29 0 -62.5 2t-47.5 6v-506h-228zM365 700q20 -4 52 -6t64 -2q123 0 196 52.5t73 181.5q0 127 -55.5 184 t-190.5 57q-18 0 -41 -1t-43.5 -2t-34.5 -4t-20 -7v-453z" />
<glyph unicode="S" horiz-adv-x="980" d="M37 225l178 129q12 -25 32.5 -55.5t52.5 -56t78 -44t109 -18.5q55 0 93 15.5t61 40t33 56.5t10 66q0 72 -44 116t-109.5 77t-141.5 64.5t-141.5 78.5t-109.5 119t-44 184q0 86 30 155t85 117t132 73.5t169 25.5q88 0 155.5 -19.5t115.5 -51t80 -71.5t48 -79l-178 -115 q-12 23 -31.5 47.5t-47 44t-66.5 31.5t-90 12q-92 0 -135.5 -45t-43.5 -108q0 -66 44.5 -108t110 -74.5t143 -65.5t143 -82t109.5 -123t44 -190q0 -104 -35.5 -178t-95 -121t-136.5 -69.5t-157 -22.5q-96 0 -169.5 20t-129 54t-93.5 79t-58 92z" />
<glyph unicode="T" horiz-adv-x="954" d="M31 1151v197h891v-197h-330v-1151h-227v1151h-334z" />
<glyph unicode="U" horiz-adv-x="1206" d="M137 463v885h228v-842q0 -102 15 -166t50 -98.5t91.5 -48t135.5 -13.5q20 0 46 2t52.5 6.5t49 10.5t39.5 12v1137h225v-1268q-59 -39 -173 -69.5t-271 -30.5q-145 0 -239.5 29.5t-150 90t-77 150.5t-21.5 213z" />
<glyph unicode="V" horiz-adv-x="1171" d="M39 1348h250l174 -639q29 -104 52.5 -195.5t39.5 -160t26.5 -111.5t12.5 -52q0 4 10 45t27.5 111t41 163t52.5 200l174 639h234l-400 -1348h-297z" />
<glyph unicode="W" horiz-adv-x="1835" d="M59 1348h248l133 -629q20 -102 39 -192.5t31 -161t19.5 -114.5t9.5 -52q2 4 10 47t22.5 113.5t34 161.5t43.5 194l152 633h252l151 -631q23 -100 42.5 -190.5t33.5 -160t22.5 -114.5t10.5 -53q2 6 9 50t19.5 113.5t30 161.5t39.5 195l133 629h234l-322 -1348h-297 l-112 449q-66 260 -95.5 412.5t-33.5 178.5q-4 -27 -34 -176t-93 -409l-115 -455h-297z" />
<glyph unicode="X" horiz-adv-x="1146" d="M23 0l403 700l-369 648h256l265 -484l258 484h249l-368 -643l407 -705h-258l-297 532l-295 -532h-251z" />
<glyph unicode="Y" horiz-adv-x="1050" d="M16 1348h250l266 -652l263 652h241l-397 -908v-440h-227v440z" />
<glyph unicode="Z" horiz-adv-x="1046" d="M76 0v176l637 975h-627v197h895v-177l-639 -974h639v-197h-905z" />
<glyph unicode="[" horiz-adv-x="581" d="M143 -414v1811h381v-144h-182v-1523h182v-144h-381z" />
<glyph unicode="\" horiz-adv-x="811" d="M16 1407h211l566 -1487h-211z" />
<glyph unicode="]" horiz-adv-x="581" d="M57 -268h181v1519h-181v146h381v-1811h-381v146z" />
<glyph unicode="^" d="M70 625l342 723h114l344 -723h-182l-217 479l-217 -479h-184z" />
<glyph unicode="_" horiz-adv-x="1009" d="M-10 -123h1030v-180h-1030v180z" />
<glyph unicode="`" horiz-adv-x="626" d="M104 1376h265l153 -280h-188z" />
<glyph unicode="a" horiz-adv-x="901" d="M72 256q0 150 125 239t391 109v78q0 78 -34 106.5t-95 28.5q-74 0 -119 -33.5t-72 -81.5l-170 103q14 29 43 61.5t75 61t109.5 47t147.5 18.5q172 0 249 -76.5t77 -209.5v-631q-59 -45 -158.5 -70.5t-214.5 -25.5q-78 0 -143.5 15t-112.5 48t-72.5 86t-25.5 127zM289 266 q0 -53 39 -83.5t121 -30.5q41 0 76.5 6t62.5 20v258q-55 -6 -108.5 -15t-96.5 -28.5t-68.5 -50.5t-25.5 -76z" />
<glyph unicode="b" horiz-adv-x="952" d="M113 66v1298h211v-395q29 10 72.5 17t97.5 7q106 0 181 -32.5t121 -96t67.5 -153.5t21.5 -203q0 -158 -36 -259.5t-96.5 -160.5t-140.5 -81.5t-168 -22.5q-133 0 -219 28.5t-112 53.5zM324 184q12 -10 44.5 -16t63.5 -6q55 0 99 15.5t74 54t46.5 104t16.5 168.5 q0 150 -48.5 230.5t-175.5 80.5q-31 0 -64.5 -5t-55.5 -17v-609z" />
<glyph unicode="c" horiz-adv-x="829" d="M63 481q0 117 23 211t72 162t125.5 103.5t185.5 35.5q137 0 217 -54t113 -148l-181 -86q-16 45 -48.5 77.5t-102.5 32.5q-98 0 -142 -82t-44 -244q0 -166 49 -246.5t164 -80.5q68 0 113.5 24.5t82.5 59.5l105 -154q-16 -16 -43 -36.5t-67 -37t-93 -27.5t-121 -11 q-215 0 -311.5 129t-96.5 372z" />
<glyph unicode="d" horiz-adv-x="950" d="M68 477q0 250 100 383t330 133q31 0 71.5 -4t59.5 -10v385h209v-1282q-12 -10 -41 -26.5t-74 -32t-106.5 -27.5t-141.5 -12q-86 0 -160.5 22.5t-130 78.5t-86 151.5t-30.5 240.5zM285 487q0 -100 14 -163.5t42 -99.5t69 -49t92 -13q35 0 71.5 7t55.5 24v604 q-18 10 -46 14t-65 4q-129 0 -181 -79t-52 -249z" />
<glyph unicode="e" horiz-adv-x="901" d="M68 467q0 106 18 201.5t65.5 167t126 114.5t199.5 43q98 0 167 -29.5t110 -81t59 -119t18 -142.5q0 -66 -6 -124.5t-12 -86.5h-528q2 -72 16 -120t42 -77t67 -40t88 -11q78 0 135 26.5t94 63.5l102 -158q-51 -51 -137 -82.5t-209 -31.5q-113 0 -191.5 32.5t-128.5 95 t-72.5 153.5t-22.5 206zM285 569h336q4 12 5 33t1 37q0 88 -36 133t-120 45q-92 0 -136 -57.5t-50 -190.5z" />
<glyph unicode="f" horiz-adv-x="659" d="M35 805v168h145v59q0 180 81 267t235 87q57 0 99 -10t71.5 -25.5t46 -30.5t24.5 -26l-104 -139q-10 14 -42 31.5t-79 17.5q-61 0 -91 -35.5t-30 -126.5v-69h248v-168h-248v-805h-211v805h-145z" />
<glyph unicode="g" horiz-adv-x="933" d="M68 498q0 117 23.5 209t76.5 155.5t139 97t213 33.5q90 0 174 -15t131 -42v-956q0 -109 -32.5 -176.5t-85 -105.5t-118 -51.5t-128.5 -13.5q-141 0 -224 50.5t-112 107.5l147 119q23 -37 70 -67.5t119 -30.5q90 0 121.5 45t31.5 131v63q-41 -20 -143 -20 q-217 0 -310 119.5t-93 347.5zM285 502q0 -154 48 -222.5t165 -68.5q33 0 66.5 6t49.5 16v568q-33 14 -106 14q-121 0 -172 -73.5t-51 -239.5z" />
<glyph unicode="h" horiz-adv-x="964" d="M113 0v1364h211v-391q25 6 70.5 13t111.5 7q111 0 179.5 -29.5t108.5 -85t54 -134t14 -177.5v-567h-209v563q0 74 -9 123t-31.5 78t-59.5 40t-92 11q-35 0 -75 -4t-62 -14v-797h-211z" />
<glyph unicode="i" horiz-adv-x="456" d="M96 1235q0 53 39 91t92 38q55 0 93 -38t38 -91t-37.5 -90t-93.5 -37q-53 0 -92 37t-39 90zM123 0v973h209v-973h-209z" />
<glyph unicode="j" horiz-adv-x="471" d="M-176 -260l117 135q6 -6 15 -16.5t22.5 -20.5t33 -18t43.5 -8q41 0 61.5 23.5t20.5 82.5v1055h211v-1047q0 -86 -22.5 -142t-60.5 -90t-88 -47.5t-103 -13.5q-59 0 -103.5 11.5t-75 29t-48 36t-23.5 30.5zM111 1235q0 53 38.5 91t92.5 38q55 0 94 -38t39 -91t-39 -90 t-94 -37q-53 0 -92 37t-39 90z" />
<glyph unicode="k" horiz-adv-x="915" d="M113 0v1364h211v-770q27 33 74.5 91t97 117.5t90.5 109t53 61.5h274l-331 -398l313 -575h-238l-219 401l-114 -137v-264h-211z" />
<glyph unicode="l" horiz-adv-x="501" d="M113 246v1118h211v-1073q0 -29 2 -50.5t12 -38t29.5 -24.5t54.5 -8h16.5t22.5 2l8 -174q-10 -4 -36.5 -7t-61.5 -3q-61 0 -108.5 12t-81.5 42t-51 79t-17 125z" />
<glyph unicode="m" horiz-adv-x="1386" d="M113 0v930q47 16 112.5 28.5t140 19.5t154.5 11t154 4q184 0 303 -17.5t186.5 -63.5t93 -123.5t25.5 -200.5v-588h-211v557q0 80 -9 129t-38 77t-81 38t-138 14v-815h-211v813q-33 0 -72 -1t-75.5 -4t-69.5 -7t-53 -8v-793h-211z" />
<glyph unicode="n" horiz-adv-x="966" d="M113 0v926q57 29 155.5 48t208.5 19q115 0 189.5 -26.5t117.5 -77.5t60.5 -125t17.5 -168v-596h-209v528q0 68 -5 121t-23.5 90t-57.5 56.5t-106 19.5q-39 0 -78 -5t-59 -15v-795h-211z" />
<glyph unicode="o" horiz-adv-x="964" d="M68 471q0 125 21.5 222.5t70.5 164t130 101t202 34.5q115 0 192.5 -31.5t124.5 -95t67.5 -156t20.5 -210.5q0 -121 -20.5 -217.5t-69.5 -164t-131 -103t-205 -35.5q-115 0 -191.5 31.5t-123.5 94t-67.5 154.5t-20.5 211zM285 473q0 -164 36.5 -239.5t153.5 -75.5 q57 0 96 18.5t63.5 60.5t35 109.5t10.5 163.5q0 162 -38 233.5t-153 71.5q-59 0 -99 -18.5t-63.5 -59.5t-32.5 -105.5t-9 -158.5z" />
<glyph unicode="p" horiz-adv-x="950" d="M113 -379v1303q66 37 160 53t178 16q123 0 206.5 -32.5t134 -94t72 -149.5t21.5 -199q0 -152 -31 -253t-88 -162.5t-136 -87t-177 -25.5q-41 0 -74 4t-55 8v-381h-211zM324 184q33 -16 112 -16q119 0 175.5 78t56.5 270q0 147 -48.5 223t-179.5 76q-41 0 -72.5 -4 t-43.5 -12v-615z" />
<glyph unicode="q" horiz-adv-x="950" d="M68 467q0 123 23.5 220t77.5 165t142 104.5t217 36.5q27 0 68 -2t85 -8t86 -16.5t71 -28.5v-1317h-209v377q-35 -10 -72 -13t-72 -3q-119 0 -198.5 32.5t-128.5 95t-69.5 152.5t-20.5 205zM285 471q0 -88 11 -147.5t37.5 -95t68.5 -51t102 -15.5q33 0 67.5 5t57.5 19v617 q-35 12 -99 12q-137 0 -191 -79t-54 -265z" />
<glyph unicode="r" horiz-adv-x="692" d="M115 0v922q25 14 60.5 26.5t75.5 22.5t83 16t80 6q98 0 165.5 -32.5t108.5 -108.5l-166 -90q-14 20 -38.5 36.5t-71.5 16.5q-55 0 -88 -16v-799h-209z" />
<glyph unicode="s" horiz-adv-x="800" d="M35 166l153 113q25 -51 75 -87t132 -36q137 0 137 106q0 45 -33.5 71.5t-85 47t-111.5 41t-111.5 54.5t-85 87t-33.5 139q0 135 93 213t247 78q70 0 125 -14t96 -37.5t67.5 -54.5t40.5 -64l-159 -102q-49 96 -176 96q-63 0 -96.5 -27.5t-33.5 -74.5q0 -45 35 -71 t86.5 -47.5t111.5 -41.5t111.5 -54t86 -86.5t34.5 -133.5q0 -84 -29.5 -141.5t-77.5 -92.5t-110.5 -51t-128.5 -16q-78 0 -137 15t-103 41.5t-74 59.5t-46 70z" />
<glyph unicode="t" horiz-adv-x="684" d="M33 805v168h143v254h209v-254h238v-168h-238v-496q0 -70 18.5 -106.5t75.5 -36.5q33 0 62.5 12t52.5 35l84 -154q-33 -33 -93.5 -55t-150.5 -22q-131 0 -194.5 64.5t-63.5 211.5v547h-143z" />
<glyph unicode="u" horiz-adv-x="958" d="M104 410v563h209v-531q0 -68 5.5 -120t24.5 -87.5t56 -53t103 -17.5q37 0 74.5 9t58.5 22v778h211v-899q-57 -41 -150.5 -66.5t-203.5 -25.5q-121 0 -197 27.5t-118 81.5t-57.5 134t-15.5 185z" />
<glyph unicode="v" d="M27 973h237l98 -355q23 -84 43.5 -162.5t37 -140t25.5 -101.5t11 -46q0 6 10.5 45t25.5 100.5t35.5 140t43.5 162.5l100 357h219l-303 -973h-282z" />
<glyph unicode="w" horiz-adv-x="1380" d="M47 973h238l73 -355q14 -72 26.5 -140t22 -122.5t14.5 -90.5t7 -42q2 6 8 42t16.5 89.5t26 122t33.5 139.5l90 357h203l86 -357q16 -70 29.5 -135t24.5 -119.5t18.5 -90t9.5 -46.5q0 8 5 44t14 90.5t21.5 120t28.5 136.5l76 357h215l-231 -973h-256l-51 215 q-23 92 -41.5 172t-31.5 141.5t-21.5 100.5t-10.5 51q-2 -12 -10 -50t-21.5 -98.5t-33 -140.5t-41.5 -174l-56 -217h-249z" />
<glyph unicode="x" horiz-adv-x="894" d="M16 0l297 502l-276 471h242l180 -324l172 324h235l-282 -471l293 -502h-244l-193 352l-190 -352h-234z" />
<glyph unicode="y" horiz-adv-x="931" d="M33 973h229l137 -510q23 -78 40.5 -128t33.5 -73l215 711h217l-348 -1067q-29 -86 -62.5 -140.5t-73.5 -83t-84 -39t-93 -10.5q-78 0 -127 20.5t-70 43.5l92 160q16 -14 43 -28.5t64 -14.5q47 0 76.5 33.5t56.5 123.5l14 49q-53 39 -95 116t-83 214z" />
<glyph unicode="z" horiz-adv-x="835" d="M61 0v152l447 649h-430v172h692v-152l-446 -649h450v-172h-713z" />
<glyph unicode="{" horiz-adv-x="645" d="M68 399v142q53 12 83.5 36.5t46 58.5t19.5 77t4 96v186q0 100 18.5 175t62.5 124t120 74t190 25v-152q-70 0 -108.5 -18.5t-58 -55.5t-24.5 -90t-5 -123v-133q0 -61 -4 -115.5t-21.5 -99.5t-49.5 -79.5t-87 -55.5q55 -23 87 -57.5t49.5 -79.5t21.5 -99.5t4 -115.5v-133 q0 -68 5 -121t24.5 -90t58.5 -55.5t108 -18.5v-152q-115 0 -190.5 24t-119.5 73t-62.5 123.5t-18.5 177.5v186q0 51 -4 94t-19.5 77t-46 58.5t-83.5 36.5z" />
<glyph unicode="|" horiz-adv-x="714" d="M258 -365v1932h201v-1932h-201z" />
<glyph unicode="}" horiz-adv-x="645" d="M35 -299q70 0 108.5 18.5t58 55.5t23.5 90t4 121v133q0 61 5.5 115.5t21.5 99.5t49 80t88 57q-55 20 -88 55t-49 80t-21.5 99.5t-5.5 115.5v133q0 70 -4 123t-23.5 90t-58.5 55.5t-108 18.5v152q115 0 190.5 -25t119.5 -74t62.5 -123.5t18.5 -175.5v-186q0 -53 4 -96 t19.5 -77t45 -58.5t83.5 -36.5v-142q-53 -12 -83 -36.5t-45.5 -58.5t-19.5 -77t-4 -94v-186q0 -102 -18.5 -177t-62.5 -124t-119.5 -73t-190.5 -24v152z" />
<glyph unicode="~" horiz-adv-x="964" d="M47 721l146 92q6 -12 15 -28.5t23.5 -31t36 -24.5t54.5 -10q45 0 86 12t81.5 26.5t86 27t98.5 12.5q94 0 147 -51.5t84 -118.5l-137 -86q-18 39 -46 63.5t-83 24.5q-39 0 -78 -12.5t-82 -27t-92 -26.5t-104 -12q-70 0 -132.5 37t-103.5 133z" />
<glyph unicode="&#xa2;" d="M100 481q0 104 19.5 192.5t61.5 154t108.5 106.5t161.5 53v158h137v-154q115 -10 183.5 -63.5t100.5 -136.5l-174 -89q-16 35 -40.5 64t-69.5 41v-645q59 6 101 29.5t77 54.5l106 -152q-33 -31 -101.5 -66.5t-182.5 -45.5v-170h-137v174q-186 23 -268.5 148.5 t-82.5 346.5zM317 489q0 -133 31 -208.5t103 -104.5v627q-72 -25 -103 -101.5t-31 -212.5z" />
<glyph unicode="&#xa3;" d="M55 147q16 6 37 16.5t39.5 28t30.5 43t12 62.5v283h-117v149h117v143q0 223 94 317.5t281 94.5q109 0 194.5 -42t130.5 -134l-167 -109q-18 31 -55.5 63t-108.5 32q-39 0 -69 -9.5t-49 -35t-29.5 -70.5t-10.5 -117v-133h289v-149h-289v-279q0 -70 -27 -108l2 -3 q25 6 48.5 10.5t62.5 4.5q45 0 76 -5t57.5 -10.5t50 -10.5t52.5 -5q72 0 106 59l111 -143q-16 -39 -56.5 -70.5t-130.5 -31.5q-39 0 -75.5 5t-74.5 12t-79 12.5t-90 5.5q-45 0 -98.5 -6.5t-100.5 -14.5q-53 -8 -108 -18z" />
<glyph unicode="&#xa5;" d="M14 1266h238l223 -465l215 465h234q-70 -137 -136.5 -274.5t-136.5 -274.5h219v-150h-292v-116h292v-150h-292v-301h-220v301h-288v150h288v116h-288v150h215z" />
<glyph unicode="&#xa8;" horiz-adv-x="831" d="M104 1221q0 53 35 87.5t88 34.5q57 0 93 -34.5t36 -87.5t-35.5 -87t-93.5 -34q-53 0 -88 34t-35 87zM475 1221q0 53 35 87.5t90 34.5t91 -34.5t36 -87.5t-36 -87t-91 -34t-90 34t-35 87z" />
<glyph unicode="&#xa9;" horiz-adv-x="1490" d="M78 666q0 160 42 289.5t127 222t211 141.5t294 49q322 0 491.5 -181t169.5 -509q0 -162 -43 -291t-128 -220t-211 -139t-294 -48q-324 0 -491.5 179t-167.5 507zM240 670q0 -152 36.5 -255.5t103 -168t158.5 -92t203 -27.5q117 0 211.5 30.5t160 97.5t101 172t35.5 255 q0 283 -134 410t-367 127q-117 0 -210.5 -31t-160 -97.5t-102 -171t-35.5 -249.5zM383 674q0 96 22.5 175t68.5 135t115.5 87t164.5 31q123 0 193.5 -51.5t96.5 -128.5l-157 -70q-16 39 -46 64.5t-89 25.5q-86 0 -131.5 -65.5t-45.5 -194.5q0 -266 201 -266q59 0 100.5 19.5 t71.5 47.5l92 -133q-29 -29 -97.5 -63.5t-184.5 -34.5q-190 0 -282.5 110.5t-92.5 311.5z" />
<glyph unicode="&#xab;" horiz-adv-x="1107" d="M88 430v148l475 387v-224l-299 -235l299 -236v-225zM547 430v148l473 387v-224l-299 -235l299 -236v-225z" />
<glyph unicode="&#xad;" horiz-adv-x="659" d="M68 442v203h526v-203h-526z" />
<glyph unicode="&#xae;" horiz-adv-x="1116" d="M84 864q0 115 29.5 208t89 158.5t149.5 101.5t211 36q229 0 349 -129t120 -365q0 -231 -119.5 -364t-361.5 -133q-231 0 -349 127t-118 360zM201 870q0 -109 25.5 -182.5t72.5 -119.5t111.5 -66.5t144.5 -20.5q168 0 264 92.5t96 305.5q0 203 -94 294t-260 91t-263 -93.5 t-97 -300.5zM373 602v543q27 12 75 20.5t99 8.5q115 0 169 -50.5t54 -136.5q0 -55 -23.5 -98t-72.5 -68l125 -219h-142l-100 193q-25 0 -41 1t-20 1v-195h-123zM496 895q16 -4 41 -4q47 0 75.5 19.5t28.5 74.5q0 88 -98 88q-14 0 -27.5 -1t-19.5 -5v-172z" />
<glyph unicode="&#xb4;" horiz-adv-x="626" d="M104 1096l156 280h262l-229 -280h-189z" />
<glyph unicode="&#xb8;" horiz-adv-x="628" d="M104 -395l48 112q16 -14 45.5 -30.5t76.5 -16.5q78 0 78 66q0 47 -40 66.5t-132 19.5l60 186h141l-37 -106q29 -4 60.5 -14.5t58 -30t44 -51t17.5 -78.5q0 -86 -59 -135.5t-172 -49.5q-80 0 -128 22.5t-61 39.5z" />
<glyph unicode="&#xbb;" horiz-adv-x="1081" d="M74 43v225l299 238l-299 235v224l473 -387v-148zM532 43v225l297 238q-76 59 -149.5 117.5t-147.5 117.5v224l474 -387v-148z" />
<glyph unicode="&#xc2;" horiz-adv-x="1161" d="M45 0l315 1311q25 16 79.5 35.5t135.5 19.5q74 0 124.5 -19.5t84 -62.5t57 -113.5t48.5 -173.5l227 -997h-231l-92 408h-428l-95 -408h-225zM319 1430l158 212h207l158 -212h-146l-116 116l-115 -116h-146zM410 602h340l-62 272q-23 96 -36 153.5t-25.5 87.5t-24.5 38 t-31 8q-23 0 -34 -8z" />
<glyph unicode="&#xc7;" horiz-adv-x="1067" d="M94 659q0 143 19.5 272.5t77 225.5t158 153.5t263.5 57.5q98 0 168 -23.5t118 -60.5t78 -81t46 -87l-197 -102q-12 27 -29.5 54.5t-44 49t-64.5 34.5t-87 13q-78 0 -130 -29.5t-84 -91t-45 -153.5t-13 -215q0 -252 68.5 -373t244.5 -121q106 0 171.5 36t100.5 71 q29 -45 56.5 -88t56.5 -90q-16 -16 -43 -36t-64.5 -38.5t-88 -31.5t-115.5 -19q4 -14 3 -27.5t-1 -28.5q0 -61 -22.5 -101t-67.5 -62.5t-114 -30.5t-161 -8v64.5t2 41.5t9.5 25.5t19.5 17.5q14 8 28.5 8h45.5h35q16 0 21 4.5t5 22.5v41v35q-129 16 -212 75.5t-130 148.5 t-64.5 203.5t-17.5 243.5z" />
<glyph unicode="&#xce;" horiz-adv-x="522" d="M2 1430l158 212h207l157 -212h-145l-117 116l-115 -116h-145zM147 0v1348h228v-1348h-228z" />
<glyph unicode="&#xd6;" horiz-adv-x="1259" d="M96 668q0 162 23.5 290.5t85 220t166 140.5t266.5 49q156 0 257 -46t160.5 -133t84 -215t24.5 -294q0 -164 -23.5 -294t-85 -220t-165.5 -138t-266 -48q-156 0 -257.5 46t-162 134t-84 216t-23.5 292zM330 672q0 -137 14 -230.5t49 -152t91.5 -84t142.5 -25.5 q90 0 149.5 28t94 88t48 155.5t13.5 232.5q0 127 -12.5 218t-46 150.5t-92 87t-148.5 27.5t-148.5 -28.5t-93.5 -88t-48 -153.5t-13 -225zM367 1536q0 45 29.5 75.5t76.5 30.5t78 -30.5t31 -75.5q0 -41 -31 -71.5t-78 -30.5t-76.5 30.5t-29.5 71.5zM684 1536q0 45 28.5 75.5 t75.5 30.5t78 -30.5t31 -75.5q0 -41 -30.5 -71.5t-78.5 -30.5q-47 0 -75.5 30.5t-28.5 71.5z" />
<glyph unicode="&#xdb;" horiz-adv-x="1206" d="M137 463v885h228v-842q0 -102 15 -166t50 -98.5t91.5 -48t135.5 -13.5q20 0 46 2t52.5 6.5t49 10.5t39.5 12v1137h225v-1268q-59 -39 -173 -69.5t-271 -30.5q-145 0 -239.5 29.5t-150 90t-77 150.5t-21.5 213zM344 1430l158 212h207l157 -212h-145l-117 116l-115 -116 h-145z" />
<glyph unicode="&#xdc;" horiz-adv-x="1206" d="M137 463v885h228v-842q0 -102 15 -166t50 -98.5t91.5 -48t135.5 -13.5q20 0 46 2t52.5 6.5t49 10.5t39.5 12v1137h225v-1268q-59 -39 -173 -69.5t-271 -30.5q-145 0 -239.5 29.5t-150 90t-77 150.5t-21.5 213zM348 1536q0 45 30 75.5t75 30.5q49 0 78.5 -30.5t29.5 -75.5 q0 -41 -29.5 -71.5t-78.5 -30.5q-45 0 -75 30.5t-30 71.5zM664 1536q0 45 29.5 75.5t76.5 30.5t78 -30.5t31 -75.5q0 -41 -31 -71.5t-78 -30.5t-76.5 30.5t-29.5 71.5z" />
<glyph unicode="&#xe2;" horiz-adv-x="901" d="M72 256q0 150 125 239t391 109v78q0 78 -34 106.5t-95 28.5q-74 0 -119 -33.5t-72 -81.5l-170 103q14 29 43 61.5t75 61t109.5 47t147.5 18.5q172 0 249 -76.5t77 -209.5v-631q-59 -45 -158.5 -70.5t-214.5 -25.5q-78 0 -143.5 15t-112.5 48t-72.5 86t-25.5 127z M166 1096l186 280h244l184 -280h-176l-131 147l-131 -147h-176zM289 266q0 -53 39 -83.5t121 -30.5q41 0 76.5 6t62.5 20v258q-55 -6 -108.5 -15t-96.5 -28.5t-68.5 -50.5t-25.5 -76z" />
<glyph unicode="&#xe7;" horiz-adv-x="829" d="M61 479q0 117 24 212t73 162t125.5 103.5t185.5 36.5q137 0 217 -55t111 -150q-45 -23 -89 -43t-90 -43q-18 47 -50.5 79t-100.5 32q-100 0 -144 -82t-44 -244q0 -166 49 -246.5t166 -80.5q66 0 112.5 24.5t83.5 61.5l105 -154q-29 -29 -82.5 -59.5t-141.5 -42.5 q2 -14 2 -28.5v-31.5q0 -61 -22.5 -101t-67.5 -62.5t-113.5 -30.5t-160.5 -8q0 68 2 97.5t14 39.5q12 12 31.5 16t56.5 4h35q16 0 21.5 4.5t5.5 22.5v41v35q-164 29 -239 152.5t-75 338.5z" />
<glyph unicode="&#xee;" horiz-adv-x="456" d="M-80 1096l184 280h246l185 -280h-177l-131 147l-131 -147h-176zM123 0v973h209v-973h-209z" />
<glyph unicode="&#xf6;" horiz-adv-x="964" d="M68 471q0 125 21.5 222.5t70.5 164t130 101t202 34.5q115 0 192.5 -31.5t124.5 -95t67.5 -156t20.5 -210.5q0 -121 -20.5 -217.5t-69.5 -164t-131 -103t-205 -35.5q-115 0 -191.5 31.5t-123.5 94t-67.5 154.5t-20.5 211zM180 1221q0 53 35 87.5t88 34.5q55 0 91 -34.5 t36 -87.5t-36 -87t-91 -34q-53 0 -88 34t-35 87zM285 473q0 -164 36.5 -239.5t153.5 -75.5q57 0 96 18.5t63.5 60.5t35 109.5t10.5 163.5q0 162 -38 233.5t-153 71.5q-59 0 -99 -18.5t-63.5 -59.5t-32.5 -105.5t-9 -158.5zM551 1221q0 53 33.5 87.5t89.5 34.5q57 0 93 -34.5 t36 -87.5t-36 -87t-93 -34q-55 0 -89 34t-34 87z" />
<glyph unicode="&#xfb;" horiz-adv-x="958" d="M104 410v563h209v-531q0 -68 5.5 -120t24.5 -87.5t56 -53t103 -17.5q37 0 74.5 9t58.5 22v778h211v-899q-57 -41 -150.5 -66.5t-203.5 -25.5q-121 0 -197 27.5t-118 81.5t-57.5 134t-15.5 185zM172 1096l184 280h246l184 -280h-176l-131 147l-131 -147h-176z" />
<glyph unicode="&#xfc;" horiz-adv-x="958" d="M104 410v563h209v-531q0 -68 5.5 -120t24.5 -87.5t56 -53t103 -17.5q37 0 74.5 9t58.5 22v778h211v-899q-57 -41 -150.5 -66.5t-203.5 -25.5q-121 0 -197 27.5t-118 81.5t-57.5 134t-15.5 185zM172 1221q0 53 35 87.5t88 34.5q55 0 91 -34.5t36 -87.5t-36 -87t-91 -34 q-53 0 -88 34t-35 87zM543 1221q0 53 33.5 87.5t89.5 34.5q57 0 93 -34.5t36 -87.5t-36 -87t-93 -34q-55 0 -89 34t-34 87z" />
<glyph unicode="&#x11e;" horiz-adv-x="1142" d="M94 659q0 147 21.5 276.5t80 225.5t163 151.5t270.5 55.5q100 0 172.5 -25.5t124 -63.5t81 -84t46.5 -89l-199 -92q-14 29 -33.5 56.5t-48.5 49t-69.5 33.5t-96.5 12q-78 0 -131 -28.5t-86 -89t-47 -154.5t-14 -223q0 -127 14 -219.5t51 -152.5t97.5 -90t152.5 -30 q57 0 99 8.5t69 18.5v325h-217v197h442v-639q-53 -41 -151.5 -74.5t-249.5 -33.5q-166 0 -270.5 50t-165 141t-83 216t-22.5 272zM367 1634q33 8 63.5 16.5t63.5 18.5q14 -43 40.5 -73.5t86.5 -30.5q55 0 80.5 31.5t35.5 72.5l131 -35q-18 -86 -77.5 -142t-174.5 -56 t-174 57t-75 141z" />
<glyph unicode="&#x11f;" horiz-adv-x="933" d="M68 498q0 117 23.5 209t76.5 155.5t139 97t213 33.5q90 0 174 -15t131 -42v-956q0 -109 -32.5 -176.5t-85 -105.5t-118 -51.5t-128.5 -13.5q-141 0 -224 50.5t-112 107.5l147 119q23 -37 70 -67.5t119 -30.5q90 0 121.5 45t31.5 131v63q-41 -20 -143 -20 q-217 0 -310 119.5t-93 347.5zM209 1311l147 43q16 -51 49 -87t101 -36q66 0 96.5 38t40.5 85l154 -41q-20 -104 -90 -170t-205 -66t-204 67.5t-89 166.5zM285 502q0 -154 48 -222.5t165 -68.5q33 0 66.5 6t49.5 16v568q-33 14 -106 14q-121 0 -172 -73.5t-51 -239.5z" />
<glyph unicode="&#x130;" horiz-adv-x="522" d="M147 0v1348h228v-1348h-228zM150 1542q0 47 32.5 78t79.5 31t79 -31t32 -78q0 -45 -32 -76.5t-79 -31.5t-79.5 31.5t-32.5 76.5z" />
<glyph unicode="&#x131;" horiz-adv-x="456" d="M123 0v973h209v-973h-209z" />
<glyph unicode="&#x15e;" horiz-adv-x="980" d="M37 223l178 129q12 -25 32.5 -54.5t52.5 -55t78 -44t109 -18.5q55 0 92 15.5t61 40t33 56.5t9 66q0 72 -44 116t-108.5 77t-141.5 64.5t-141.5 78.5t-108.5 118t-44 185q0 174 114 272.5t302 98.5q88 0 155.5 -19.5t115.5 -52t79 -72.5t47 -79q-45 -29 -88 -57.5 t-88 -57.5q-12 23 -31.5 47.5t-47 44t-66.5 31.5t-90 12q-47 0 -80 -13t-54.5 -33.5t-30.5 -47.5t-9 -53q0 -68 44 -110t109.5 -75.5t141 -66.5t141 -83t109.5 -125t44 -189q0 -80 -21.5 -141.5t-59 -107.5t-89 -76t-108.5 -44q2 -16 2 -33.5v-36.5q0 -61 -22.5 -101 t-67.5 -62.5t-114 -30.5t-161 -8v63.5t3 40.5t9.5 25.5t16.5 17.5q12 10 28.5 10h47.5h35q16 0 21 4.5t5 22.5v41v31q-84 6 -149.5 27.5t-114.5 54t-83 73.5t-52 84z" />
<glyph unicode="&#x15f;" horiz-adv-x="800" d="M33 164l153 115q27 -51 77 -87t132 -36q70 0 102.5 29.5t32.5 76.5q0 45 -33.5 70.5t-85 46t-111.5 41t-111.5 54.5t-85 88t-33.5 140q0 135 94 213t248 78q70 0 125 -14t95 -37.5t66.5 -54.5t42.5 -64q-41 -27 -79.5 -52.5t-79.5 -49.5q-23 45 -67 70.5t-109 25.5 q-63 0 -97.5 -29.5t-34.5 -72.5q0 -45 35 -71t86 -47.5t112.5 -41.5t113 -54t86 -86.5t34.5 -133.5q0 -119 -56 -184.5t-140 -94.5h2l4 -49v-21q0 -63 -22.5 -103t-67.5 -62.5t-113.5 -30.5t-161.5 -8q0 68 2 97.5t15 39.5q18 20 86 20h35q16 0 21 4.5t5 22.5v41v29 q-133 10 -208.5 63t-108.5 119z" />
<glyph unicode="&#x2c6;" horiz-adv-x="823" d="M104 1096l185 280h246l184 -280h-176l-131 147l-131 -147h-177z" />
<glyph unicode="&#x2da;" horiz-adv-x="589" d="M104 1247q0 88 56.5 136.5t134.5 48.5t134 -48.5t56 -136.5t-56 -138t-134 -50t-134.5 50t-56.5 138zM217 1247q0 -35 19.5 -60.5t58.5 -25.5q37 0 56.5 24.5t19.5 61.5q0 35 -19.5 60.5t-56.5 25.5q-39 0 -58.5 -25.5t-19.5 -60.5z" />
<glyph unicode="&#x2dc;" horiz-adv-x="901" d="M104 1298l152 43q2 -12 7 -29.5t14.5 -32.5t22.5 -25.5t34 -10.5q25 0 52.5 15.5t58 33t66.5 32.5t81 15q88 0 136 -60t69 -146l-152 -39q-4 12 -9 29.5t-13.5 32.5t-21.5 25.5t-32 10.5q-25 0 -52.5 -15.5t-59 -34t-68.5 -33.5t-80 -15q-86 0 -135 59t-70 145z" />
<glyph unicode="&#x2000;" horiz-adv-x="834" />
<glyph unicode="&#x2001;" horiz-adv-x="1669" />
<glyph unicode="&#x2002;" horiz-adv-x="834" />
<glyph unicode="&#x2003;" horiz-adv-x="1669" />
<glyph unicode="&#x2004;" horiz-adv-x="556" />
<glyph unicode="&#x2005;" horiz-adv-x="417" />
<glyph unicode="&#x2006;" horiz-adv-x="278" />
<glyph unicode="&#x2007;" horiz-adv-x="278" />
<glyph unicode="&#x2008;" horiz-adv-x="208" />
<glyph unicode="&#x2009;" horiz-adv-x="333" />
<glyph unicode="&#x200a;" horiz-adv-x="92" />
<glyph unicode="&#x2010;" horiz-adv-x="659" d="M68 442v203h526v-203h-526z" />
<glyph unicode="&#x2011;" horiz-adv-x="659" d="M68 442v203h526v-203h-526z" />
<glyph unicode="&#x2012;" horiz-adv-x="659" d="M68 442v203h526v-203h-526z" />
<glyph unicode="&#x2013;" horiz-adv-x="1003" d="M68 442v203h868v-203h-868z" />
<glyph unicode="&#x2014;" horiz-adv-x="1671" d="M68 442v203h1538v-203h-1538z" />
<glyph unicode="&#x2018;" horiz-adv-x="438" d="M70 942l112 406h189l-82 -406h-219z" />
<glyph unicode="&#x2019;" horiz-adv-x="438" d="M70 942l80 406h221l-113 -406h-188z" />
<glyph unicode="&#x201a;" horiz-adv-x="438" d="M70 -121l80 408h221l-113 -408h-188z" />
<glyph unicode="&#x201c;" horiz-adv-x="765" d="M70 942l112 406h189l-82 -406h-219zM397 942l111 406h188l-80 -406h-219z" />
<glyph unicode="&#x201d;" horiz-adv-x="765" d="M70 942l80 406h221l-113 -406h-188zM395 942l80 406h221l-112 -406h-189z" />
<glyph unicode="&#x201e;" horiz-adv-x="765" d="M70 -121l80 408h221l-113 -408h-188zM395 -121l80 408h221l-112 -408h-189z" />
<glyph unicode="&#x2026;" horiz-adv-x="1310" d="M84 117q0 57 37 96t96 39t98 -41t39 -94q0 -55 -39 -94t-98 -39t-96 38t-37 95zM520 117q0 57 38 96t97 39t97.5 -41t38.5 -94q0 -55 -38 -94t-98 -39q-59 0 -97 38t-38 95zM956 117q0 57 38 96t98 39q59 0 97 -41t38 -94q0 -55 -38 -94t-97 -39t-97.5 38t-38.5 95z" />
<glyph unicode="&#x202f;" horiz-adv-x="333" />
<glyph unicode="&#x2039;" horiz-adv-x="651" d="M88 430v148l475 387v-224l-299 -235l299 -236v-225z" />
<glyph unicode="&#x203a;" horiz-adv-x="651" d="M88 43v225l299 238l-299 235v224l473 -387v-148z" />
<glyph unicode="&#x205f;" horiz-adv-x="417" />
<glyph unicode="&#x20ac;" d="M37 430v152h88v63.5t2 52.5h-90v150h102q12 94 41 173t81 137.5t131 91t192 32.5q80 0 138 -17.5t98 -43t64.5 -57t37.5 -62.5l-172 -115q-23 43 -63 70.5t-114 27.5q-102 0 -148 -59t-63 -178h357v-150h-367v-116h367v-152h-357q20 -135 79 -194.5t173 -59.5 q92 0 144.5 30t83.5 64l94 -182q-10 -12 -36 -30.5t-66.5 -36t-99 -29.5t-134.5 -12q-121 0 -205 33.5t-138 93t-83 142.5t-39 181h-98z" />
<glyph unicode="&#x2122;" horiz-adv-x="1818" d="M70 1202v146h663v-146h-244v-717h-174v717h-245zM836 485v863h231l107 -312q47 -143 71.5 -227t28.5 -131h4q4 47 24.5 135t71.5 229l109 306h223v-863h-166v242q0 59 1 120.5t3 115t4 92.5t2 53h-4q-4 -20 -25.5 -100t-64.5 -203l-110 -320h-150l-109 320 q-45 133 -67.5 207.5t-28.5 95.5h-4q2 -12 4 -51t4 -92.5t4 -116t2 -121.5v-242h-165z" />
<glyph unicode="&#x25fc;" horiz-adv-x="972" d="M0 0v973h973v-973h-973z" />
</font>
</defs>
</svg>
